<?xml version="1.0" encoding="UTF-8"?><svg id="_내__확인_후_삭제_" xmlns="http://www.w3.org/2000/svg" viewBox="0 0 444.96 209.45"><defs><style>.cls-1{fill:#d32d26;}</style></defs><path class="cls-1" d="M325.99,70.4c0,8.67-1.07,16.41-3.21,23.22-2.14,6.82-5.04,12.83-8.69,18.04-3.65,5.21-7.87,9.67-12.63,13.36-4.77,3.7-9.76,6.74-14.97,9.13-5.21,2.39-10.47,4.11-15.77,5.19-5.31,1.07-10.3,1.61-14.97,1.61l79.31,68.5h-58.72l-79.16-68.5h-27.31v-37.97h85.88c4.77-.39,9.13-1.39,13.07-2.99,3.94-1.61,7.35-3.77,10.22-6.5,2.87-2.72,5.09-6.01,6.65-9.86,1.56-3.85,2.34-8.25,2.34-13.22v-23.95c0-2.14-.27-3.77-.8-4.89-.54-1.12-1.22-1.95-2.04-2.48-.83-.53-1.7-.85-2.63-.95-.93-.1-1.78-.15-2.56-.15h-125.32V209.45h-37.98V19.13c0-2.63,.49-5.11,1.46-7.45,.97-2.34,2.31-4.38,4.02-6.13,1.7-1.75,3.72-3.11,6.06-4.09,2.34-.97,4.87-1.46,7.6-1.46h144.16c8.47,0,15.63,1.53,21.47,4.6,5.84,3.07,10.59,6.91,14.24,11.54,3.65,4.63,6.28,9.62,7.89,14.97,1.61,5.36,2.41,10.37,2.41,15.04v24.25Z"/><g><path class="cls-1" d="M42.97,69.06c.26-2.66,.96-5.22,2.12-7.67,1.16-2.45,2.55-4.81,4.17-7.1,1.62-2.28,3.32-4.55,5.1-6.8,1.78-2.25,3.37-4.49,4.78-6.73,1.41-2.24,2.53-4.49,3.37-6.75,.84-2.26,1.12-4.61,.84-7.05-1.85-1.09-4.16-1.36-6.93-.81-2.77,.55-5.78,1.6-9.03,3.16-3.25,1.56-6.67,3.46-10.25,5.7-3.58,2.24-7.1,4.53-10.54,6.88-3.44,2.35-6.72,4.58-9.82,6.71-3.11,2.12-5.88,3.84-8.3,5.15-2.42,1.31-4.39,2.05-5.9,2.21-1.51,.17-2.37-.51-2.57-2.03-.06-.09,.58-1.02,1.94-2.77,1.36-1.76,3.04-3.96,5.07-6.62,2.02-2.66,4.24-5.52,6.67-8.59,2.43-3.07,4.71-5.95,6.86-8.62,2.15-2.67,4.01-4.93,5.59-6.77,1.58-1.84,2.54-2.8,2.89-2.9,1.46,1.43,2.08,2.79,1.87,4.11-.21,1.32-.68,2.62-1.42,3.92-.74,1.3-1.54,2.6-2.4,3.92-.86,1.32-1.23,2.72-1.11,4.23,1.43-.63,3.43-1.51,5.98-2.63,2.55-1.12,5.31-2.26,8.28-3.43,2.97-1.16,6.05-2.27,9.24-3.31,3.19-1.04,6.14-1.78,8.85-2.21,2.71-.43,5.08-.5,7.12-.2,2.04,.3,3.41,1.18,4.12,2.63,.71,1.45,.62,3.59-.29,6.41-.9,2.83-2.9,6.54-5.98,11.13-.34,.51-1.17,1.73-2.48,3.66-1.31,1.93-2.73,4-4.25,6.22-1.53,2.22-2.95,4.29-4.25,6.22-1.31,1.93-2.13,3.15-2.48,3.66-.14,.3-.35,.86-.62,1.67-.28,.81-.59,1.7-.93,2.66-.35,.96-.76,1.87-1.25,2.72-.49,.85-1.02,1.47-1.58,1.86s-1.11,.22-1.63-.49c-.52-.72-.81-1.16-.86-1.33Z"/><path class="cls-1" d="M74.49,75.01c-3.08-1.98-4.78-4.39-5.1-7.24-.32-2.85,.26-5.84,1.75-8.97,1.49-3.13,3.64-6.25,6.45-9.38,2.81-3.12,5.79-5.91,8.96-8.35,3.17-2.44,6.27-4.42,9.31-5.94,3.04-1.52,5.53-2.22,7.48-2.1,5.03,.29,8.84,1.36,11.41,3.2,2.57,1.84,4.13,4.09,4.7,6.74,.57,2.65,.3,5.58-.79,8.78-1.1,3.2-2.77,6.31-5.03,9.34-2.25,3.02-4.96,5.84-8.12,8.44-3.16,2.61-6.51,4.66-10.03,6.17-3.53,1.51-7.1,2.27-10.72,2.29-3.62,.01-7.04-.98-10.28-2.99Zm-.03-7.03c.15,2.66,1.24,4.32,3.25,4.99,2.01,.67,4.5,.6,7.49-.19,2.98-.79,6.21-2.15,9.7-4.08,3.48-1.93,6.75-4.12,9.8-6.59,3.05-2.46,5.67-5.03,7.86-7.69,2.19-2.67,3.47-5.11,3.85-7.34,.38-2.23-.37-4.11-2.26-5.66-1.88-1.55-5.35-2.43-10.4-2.64-1.31,.82-2.97,1.8-4.99,2.94-2.02,1.14-4.13,2.4-6.32,3.8-2.19,1.39-4.39,2.93-6.6,4.61-2.21,1.68-4.18,3.46-5.94,5.35-1.75,1.89-3.14,3.89-4.15,5.99-1.01,2.11-1.45,4.28-1.29,6.53Z"/><path class="cls-1" d="M253.64,103.69c.13-1.33,.45-2.62,.98-3.88,.52-1.26,1.16-2.45,1.91-3.58,.75-1.13,1.46-2.17,2.13-3.11,.47-.73,1.39-2.06,2.78-3.97,1.39-1.91,2.87-3.91,4.46-6,1.58-2.08,3.08-4.04,4.49-5.86,1.41-1.83,2.39-3.1,2.94-3.82l.49-2.62c-.72-.55-2.45-.32-5.18,.69-2.74,1-5.97,2.49-9.71,4.45-3.74,1.96-7.73,4.19-11.97,6.67-4.25,2.48-8.25,4.87-12,7.16-3.76,2.29-7.04,4.34-9.84,6.15-2.81,1.81-4.59,3.01-5.36,3.61-1.85,.23-2.91-.36-3.18-1.77-.27-1.41-.06-3.25,.62-5.55,.68-2.29,1.65-4.82,2.91-7.58,1.26-2.76,2.51-5.36,3.75-7.79,1.24-2.43,2.33-4.51,3.27-6.22,.94-1.71,1.38-2.65,1.33-2.83-1.48-.85-3.19-.97-5.11-.35-1.92,.62-3.97,1.69-6.15,3.21-2.18,1.52-4.41,3.36-6.7,5.51-2.3,2.15-4.59,4.31-6.88,6.46-2.3,2.15-4.49,4.2-6.58,6.15-2.09,1.95-4.03,3.49-5.8,4.63-1.78,1.14-3.34,1.71-4.69,1.7-1.35,0-2.37-.82-3.05-2.42-.07-.09-.07-.3,0-.62s.14-.55,.25-.69c.54-.72,1.4-1.85,2.55-3.4,1.15-1.55,2.45-3.29,3.88-5.24,1.43-1.95,2.97-3.98,4.6-6.09,1.63-2.11,3.18-4.12,4.65-6.02,1.47-1.9,2.77-3.6,3.92-5.11s2.03-2.61,2.66-3.32c.54-.72,1.29-1.62,2.24-2.72,.95-1.09,1.88-2.15,2.81-3.16,.93-1.01,2.11-2.25,3.53-3.71l2.85,.54c.21,1.93-.19,3.62-1.2,5.07-1.01,1.45-2.16,2.84-3.43,4.16-1.28,1.32-2.39,2.65-3.34,3.99-.95,1.34-1.27,2.9-.95,4.69,7.95-4.74,14.05-8.19,18.27-10.35,4.23-2.16,7.13-3.29,8.71-3.41,1.58-.11,2.18,.62,1.8,2.19-.38,1.57-1.12,3.65-2.22,6.23-1.1,2.58-2.28,5.54-3.52,8.88-1.25,3.34-1.94,6.68-2.07,10.02l1.43,.27c.54-.23,1.44-.67,2.72-1.34,1.27-.66,2.66-1.39,4.17-2.17,1.5-.78,2.91-1.5,4.23-2.16,1.31-.65,2.24-1.1,2.77-1.32,1.01-.55,2.46-1.3,4.37-2.26,1.9-.95,3.83-1.92,5.78-2.91,1.95-.99,3.71-1.84,5.29-2.57,1.57-.73,2.58-1.18,3.02-1.34,.36-.18,1.15-.54,2.36-1.09,1.21-.55,2.55-1.14,4.03-1.77,1.47-.62,2.87-1.2,4.21-1.73,1.33-.53,2.31-.94,2.94-1.23,1.34-.57,2.52-.71,3.53-.44,1.01,.27,1.8,.81,2.34,1.61,.55,.8,.79,1.79,.73,2.97-.06,1.18-.46,2.44-1.21,3.78-2.58,3.21-5.12,6.34-7.62,9.4-2.51,3.06-4.86,6.17-7.05,9.32-2.2,3.16-4.14,6.47-5.81,9.93-1.68,3.46-2.95,7.25-3.81,11.35-.44,.16-.86,.08-1.25-.24-.39-.32-.75-.71-1.07-1.19-.32-.47-.69-1.16-1.09-2.05-.68-1.19-.95-2.46-.83-3.79Z"/><path class="cls-1" d="M287.73,115.24c-3.08-1.98-4.78-4.39-5.1-7.24-.32-2.85,.26-5.84,1.75-8.97,1.49-3.13,3.64-6.25,6.45-9.38,2.81-3.12,5.79-5.91,8.96-8.35,3.17-2.44,6.27-4.42,9.31-5.94,3.04-1.52,5.53-2.22,7.48-2.1,5.03,.29,8.84,1.36,11.41,3.2,2.57,1.84,4.13,4.09,4.7,6.74,.57,2.65,.3,5.58-.79,8.78-1.1,3.2-2.77,6.31-5.03,9.34-2.25,3.02-4.96,5.84-8.12,8.44-3.16,2.61-6.51,4.66-10.03,6.17-3.53,1.51-7.1,2.27-10.72,2.29-3.62,.01-7.04-.98-10.28-2.99Zm-.03-7.03c.15,2.66,1.24,4.32,3.25,4.99,2.01,.67,4.5,.6,7.49-.19,2.98-.79,6.21-2.15,9.7-4.08,3.48-1.93,6.75-4.12,9.8-6.59,3.05-2.46,5.67-5.03,7.86-7.69,2.19-2.67,3.47-5.11,3.85-7.34,.38-2.23-.37-4.11-2.26-5.66-1.88-1.55-5.35-2.43-10.4-2.64-1.31,.82-2.97,1.8-4.99,2.94-2.02,1.14-4.13,2.4-6.32,3.8-2.19,1.39-4.39,2.93-6.6,4.61-2.21,1.68-4.18,3.46-5.94,5.35-1.75,1.89-3.14,3.89-4.15,5.99-1.01,2.11-1.45,4.28-1.29,6.53Z"/><path class="cls-1" d="M332.93,123.77c-.14-.11,.05-1.04,.59-2.78,.53-1.75,1.25-3.93,2.16-6.55,.9-2.62,1.98-5.5,3.23-8.63,1.25-3.13,2.51-6.12,3.78-8.95,1.27-2.84,2.54-5.31,3.8-7.41,1.26-2.1,2.37-3.51,3.32-4.24,.66-.45,1.22-.36,1.68,.25,.46,.62,.89,1.36,1.31,2.22,.41,.86,.84,1.64,1.28,2.34,.44,.7,1.02,.87,1.75,.52,2.8-2.67,5.8-5.17,8.99-7.48,3.19-2.31,6.6-4.19,10.24-5.64,.36-.18,1.3-.39,2.83-.64,1.52-.25,3.24-.45,5.17-.63,1.92-.17,3.88-.25,5.9-.24,2.01,0,3.7,.17,5.08,.47,1.38,.3,2.26,.84,2.65,1.61,.39,.77-.08,1.85-1.41,3.24-4.77-.82-9.48-.27-14.11,1.65-4.63,1.92-9.07,4.53-13.3,7.84-4.24,3.31-8.22,7.01-11.95,11.11-3.73,4.1-7.02,7.93-9.87,11.5-2.85,3.57-5.21,6.53-7.1,8.88-1.88,2.36-3.14,3.47-3.77,3.35-.08-.02-.4-.26-.97-.74-.57-.48-1-.82-1.28-1.04Z"/><path class="cls-1" d="M397.39,135.93c-2.23-1.24-3.81-2.79-4.73-4.65-.92-1.86-1.4-3.81-1.42-5.87-.02-2.06,.31-4.15,1-6.28,.69-2.13,1.54-4.12,2.55-5.99,2.86-2.09,6.08-4.5,9.68-7.23,3.59-2.73,7.36-5.37,11.28-7.91,3.93-2.54,7.95-4.84,12.08-6.9,4.12-2.06,8.18-3.44,12.18-4.17,1.37-.31,2.38-.11,3.02,.63,.64,.74,1,1.77,1.08,3.1,.08,1.33-.06,2.82-.41,4.48-.36,1.66-.8,3.26-1.34,4.8-.54,1.54-1.12,2.91-1.76,4.1-.64,1.19-1.2,1.99-1.68,2.39-1.16,.93-3.25,1.89-6.27,2.88-3.02,.99-6.36,2.06-10.03,3.22s-7.35,2.37-11.03,3.65-6.78,2.64-9.27,4.1c-2.49,1.46-4.11,3.06-4.85,4.81-.74,1.75,.05,3.62,2.39,5.62,2.63,.83,5.93,1.3,9.89,1.43,3.96,.13,8.03,.08,12.22-.16,4.19-.23,8.25-.54,12.18-.9,3.93-.37,7.14-.64,9.64-.83l1.18,1.58c-2.18,1.97-5.43,3.53-9.75,4.69-4.32,1.15-8.9,1.91-13.73,2.27-4.83,.36-9.46,.31-13.89-.16-4.43-.47-7.83-1.37-10.2-2.72Zm37-40.07c-.06-.09-.72,.13-1.97,.67-1.25,.55-2.81,1.28-4.66,2.2-1.86,.92-3.86,1.94-6,3.06-2.14,1.12-4.1,2.16-5.89,3.14-1.79,.98-3.28,1.83-4.48,2.54-1.2,.72-1.73,1.09-1.57,1.12,1.22,.48,2.9,.61,5.04,.4,2.13-.21,4.39-.67,6.79-1.37,2.39-.7,4.71-1.55,6.95-2.57,2.24-1.01,4.07-2.08,5.47-3.22,1.4-1.13,2.22-2.21,2.46-3.23,.23-1.02-.48-1.94-2.13-2.74Z"/></g></svg>